<svg xmlns="http://www.w3.org/2000/svg" viewBox="0 0 635 274.7"><defs><style>.cls-1{fill:#011126;stroke:#011126;stroke-miterlimit:10;stroke-width:2px;}</style></defs><title>LOGO</title><g id="Layer_2" data-name="Layer 2"><g id="Layer_1-2" data-name="Layer 1"><path class="cls-1" d="M628.88,203.71C620.52,230.22,595,250.05,567,250.55c-16,.29-32.57-6.23-35.6-23.8a72,72,0,0,1-1-9.56h0A69,69,0,0,0,536.78,178q-2.25,0-4.5-.21a3.31,3.31,0,0,1-1.74,0H489.32c-3.32,0-3.33,5.17,0,5.17h40s0,0,0,0c-2.49,10.48-4.55,22.13-4.31,33.18v0c-8,15-22.38,26-41.23,27.35-33.85,2.39-53-30-56.22-59.82-1.7-15.87-.44-32.12,1.34-47.93,1.8-16,5-32.59,14.07-46.23,8.16-12.34,21.75-23,37.16-22.81,14.67.16,28.47,10.17,30.84,25a2.79,2.79,0,0,0,.09.34l-.14.29c-1.51,3,2.94,5.58,4.46,2.61,10.41-20.28,5.14-43.15-8.13-60.8C492.12,14,469.4,3.17,444.57,1.32c-59.83-4.43-110.13,37.35-144,82.33-37.44,49.76-63.62,108.84-112,149.69-22.22,18.78-48.95,32.63-78.27,34.83-25.54,1.91-52.88-4-73-20.61-27-22.27-33.31-60.81-30.45-94.05,1.62-18.9,7.55-38.37,21.61-51.75,8.33-7.93,18.85-13.32,29.92-14.68h0q7.83.7,15.64.88h0l.16,0c.91,0,1.81,0,2.72.07l.13,0c.57,0,1.12,0,1.68,0l0,0h0c26.57.07,53-3.91,79.38-8,0,.07,0,.13,0,.2q1,10.55,2.07,21.13c1.46,16.61,2.67,33.24,3.84,49.87,1.15,16.38,2.85,32.89,3.42,49.38,0,1.6,0,3.21,0,4.8,0,3,.1,5.41.17,7.72,0,3.12-.1,6.24-.25,9.35a2.66,2.66,0,0,0,.13,1c.19,1.49,1.27,2,2.18,1.52a2.6,2.6,0,0,0,2.86-2.48c1.14-23.71-1.71-47.61-3.38-71.25s-3.39-47.45-5.86-71.12c31.39-4.88,67.36-11.12,98.88-8.2,3.31.31,3-4.34-.3-4.65-62.76-5.81-124.24,17-186.6,15.71h0A48.1,48.1,0,0,0,58,81.9h0c-4.19,1.12-7.81,2-10.6,2.57l-1.19.41a8.59,8.59,0,0,1-1.67.51A63.59,63.59,0,0,0,15,110.24C-1,135.41-1.23,169.13,4.15,197.54c4.94,26.09,18.54,48.74,41.78,62.18,21,12.12,46.29,15.94,70.15,13.07,57.42-6.92,99.42-53.28,130.46-98.4,36.71-53.35,66.52-117,125.27-149.87C402.3,7.46,442.56-1.69,475.46,14.32c24.85,12.08,46.58,41.52,38.8,69.5a0,0,0,0,1-.06,0C507,65.1,483.37,57.25,464.84,64.55c-27.52,10.85-37.46,41.28-40.76,68.19-3.64,29.72-5.95,63.67,11.14,89.94,14,21.58,39.28,31.67,63.91,22.82a55,55,0,0,0,26.6-20.39s0,0,.06,0a50.74,50.74,0,0,0,2.05,8.61c5,14.57,19.92,20.92,34.26,21.88,32,2.13,62.26-20.41,71.77-50.54C634.87,201.9,629.89,200.53,628.88,203.71Z"/></g></g></svg>
