<svg id="Layer_1" data-name="Layer 1" xmlns="http://www.w3.org/2000/svg" viewBox="0 0 635 274.7"><defs><style>.cls-1{fill:#011126;stroke:#011126;stroke-miterlimit:10;stroke-width:2px;}</style></defs><title>TGWAVE</title><path class="cls-1" d="M709.88,248.06C701.52,274.57,676,294.4,648,294.9c-16,.29-32.57-6.23-35.6-23.8a71.84,71.84,0,0,1-1-9.55v0a69,69,0,0,0,6.32-39.22q-2.25,0-4.5-.21a3.31,3.31,0,0,1-1.74,0H570.32c-3.32,0-3.33,5.18,0,5.18h40s0,0,0,0c-2.49,10.48-4.55,22.12-4.31,33.18h0c-8,15-22.38,26-41.23,27.36-33.85,2.39-53-30-56.22-59.83-1.7-15.87-.44-32.12,1.34-47.93,1.8-16,5-32.59,14.07-46.23,8.16-12.33,21.75-23,37.16-22.81,14.67.16,28.47,10.18,30.84,25a3.18,3.18,0,0,0,.09.33c0,.1-.09.2-.14.29-1.51,3,2.94,5.58,4.46,2.61,10.41-20.28,5.14-43.15-8.13-60.8-15.13-20.12-37.85-31-62.68-32.82C465.74,41.24,415.44,83,381.6,128c-37.44,49.76-63.62,108.84-112,149.7-22.22,18.77-48.95,32.62-78.27,34.82-25.54,1.92-52.88-4-73-20.61-27-22.26-33.31-60.81-30.45-94.05,1.62-18.9,7.55-38.37,21.61-51.75,8.33-7.93,18.85-13.32,29.92-14.68h0q7.83.7,15.64.88h0l.16,0c.91,0,1.81,0,2.72.07h.13c.57,0,1.12,0,1.68,0l0,0h0c26.57.07,53-3.91,79.38-8,0,.06,0,.12,0,.19q1,10.54,2.07,21.13c1.46,16.61,2.67,33.24,3.84,49.88,1.15,16.38,2.85,32.89,3.42,49.37,0,1.6,0,3.21,0,4.8,0,3,.1,5.42.17,7.72,0,3.12-.1,6.24-.25,9.35a2.63,2.63,0,0,0,.13,1c.19,1.49,1.27,2,2.18,1.53a2.61,2.61,0,0,0,2.86-2.49c1.14-23.71-1.71-47.61-3.38-71.24s-3.39-47.46-5.86-71.12c31.39-4.89,67.36-11.13,98.88-8.21,3.31.31,3-4.34-.3-4.64-62.76-5.82-124.24,16.94-186.6,15.7h0a48.1,48.1,0,0,0-17.43-1h0c-4.19,1.12-7.81,2-10.6,2.56l-1.19.42a8.59,8.59,0,0,1-1.67.51A63.51,63.51,0,0,0,96,154.59c-15.92,25.18-16.19,58.9-10.81,87.3,4.94,26.09,18.54,48.74,41.78,62.18,21,12.12,46.29,15.94,70.15,13.07,57.42-6.92,99.42-53.27,130.46-98.39,36.71-53.36,66.52-117,125.27-149.87,30.49-17.06,70.75-26.21,103.65-10.21,24.85,12.08,46.58,41.52,38.8,69.5a0,0,0,0,1-.06,0c-7.21-18.72-30.83-26.57-49.36-19.27-27.52,10.85-37.46,41.28-40.76,68.2-3.64,29.71-5.95,63.67,11.14,89.93,14,21.58,39.28,31.67,63.91,22.82a55,55,0,0,0,26.6-20.38s0,0,.06,0a50.51,50.51,0,0,0,2.05,8.61c5,14.57,19.92,20.92,34.26,21.88,32,2.13,62.26-20.41,71.77-50.54C715.87,246.25,710.89,244.89,709.88,248.06Z" transform="translate(-81 -44.35)"/></svg>
